<?xml version="1.0" encoding="UTF-8"?>
<svg viewBox="0 0 1055.3834 1669.2203" xmlns="http://www.w3.org/2000/svg">
 <g transform="translate(180.84 391.05)">
  <g fill="#fbfbfb" stroke="#000" stroke-linecap="round" stroke-linejoin="round">
   <path d="m472.78 703.49-8.968-10.863-8.8417-9.3469-9.9785-8.4628-16.294-12.505-17.304-11.873-11.999-7.9575-2.3999-1.642-73.133-43.829-31.704-19.073-12.757-8.0838-28.672-18.189-17.81-10.863-40.419-23.494-27.03-16.673-38.651-19.199-26.02-12.126-31.83-14.399-24.125-10.736-11.368-5.5576-12.757-5.0524-10.105-3.7893-14.272-4.3176-6.6986-0.98246-4.6444-0.35726-3.5726 0.17863-0.89314-2.7688 0.08931-3.8405 1.3397-4.4657 2.5901-5.5375 1.697-3.126 2.5008-3.7512 2.7688-3.7512 2.0542-2.1435 3.4833-2.7688 3.7512-2.5008 3.3046-1.6077 5.5375-0.98246 10.36 0.71452 15.63 3.8405 15.541 5.8054 42.424 19.024 59.305 28.581 60.377 32.51 56.447 31.439 55.018 33.939 38.584 23.579 46.444 28.938 26.794 17.148 29.652 23.222 6.3413 5.6268 6.252 5.8054 6.3413 6.9665 4.7337 6.1627 1.7863 4.3764 0.44657 4.9123-0.53589 4.7337-0.80383 3.9298-1.5183 3.394-1.697 4.1085-3.0367 5.3589-4.0192 5.3589-2.9474 3.7512-3.3046 2.5901-1.4825 0.62003z" stroke-width="6"/>
   <path d="m416.82 1147.9 1.2631-314.64 2.1473-12.126s3.663-9.3469 3.9156-9.8522 6.0629-8.8417 6.0629-8.8417l6.3155-8.0838 7.8312-7.5786 10.863-7.7049 8.7154-4.1682 12.252-4.0419 9.9785-1.5157 11.747-0.12631s9.9785 0.88417 10.484 0.88417 12.505 3.7893 12.505 3.7893l13.894 6.5681 11.747 8.2101 9.2206 10.989 5.5576 9.5995 5.4313 10.736 25.515 57.597 102.31 224.96s5.5576 11.873 7.7049 14.273 5.305 8.968 9.9785 12.126 8.2101 5.9365 13.515 6.4418 9.3469 0.5052 11.62 1.5157 4.5472 2.2736 6.1892 5.1787 1.0105 13.136 1.0105 13.136l-327.77-7.326z" stroke-width="6"/>
   <path transform="translate(-25.723 -35.011)" d="m568.04 882.66c0 25.453-20.634 46.086-46.086 46.086s-46.086-20.634-46.086-46.086 20.634-46.086 46.086-46.086 46.086 20.634 46.086 46.086z" fill-rule="evenodd" stroke-width="6"/>
   <path d="m228.87 1011.7 34.356 20.462 145.26-260.7-35.619-20.21-143.99 260.45z" stroke-width="6"/>
   <path d="m264.01 1032.4 64.306 37.066s1.3397 0.8932 3.4833 0.9825 84.759-24.115 84.759-24.115l1.7752-214.34 1.7683-10.231 2.6525-7.0733 5.1787-9.4732 4.7998-5.9366 3.5367-4.0419 7.1997-7.326 6.947-5.4313 6.0629-4.1682 8.0838-3.5367s7.7049-3.1577 8.3364-3.1577 12.126-2.3999 12.126-2.3999l10.105-0.25262 10.357 0.75786 10.231 2.1473 5.9366 2.1473 6.8207 3.4104 5.6839 2.7788 6.4418 4.0419 6.1892 4.4208 5.0524 6.0629 4.9261 6.1892 4.1682 7.8312 5.1787 10.105 3.5367 7.5786 3.284 7.8312 48.124 106.35s40.293-32.714 58.734-53.176 40.166-46.229 40.166-46.229 1.0105-12.126 6.5681-20.21 15.157-18.441 21.978-22.483 8.0838-5.305 8.0838-5.305 24.504-38.651 31.83-52.545 22.736-44.461 30.567-62.902 24.504-67.955 28.799-83.617 12.884-50.019 14.905-63.407 8.8417-74.523 8.5891-81.343 1.0105-54.818-0.50524-62.144-3.0314-47.492-5.305-65.176-9.5995-48.25-13.389-62.144-26.272-81.091-26.525-83.112-16.42-40.672-19.452-46.229-17.178-30.314-19.704-34.104-28.546-20.926-28.546-20.926l-5.5576 12.505-6.8207 9.2206-8.5891 7.5786-11.115 9.4313-13.136 7.4523-18.189 5.0524h-16.673l-6.3118-0.77195-145.4 266.51 86.992 49.659 12.504-1.429 10.539-1.2504h10.539l10.539 0.53589 8.7528 1.429 10.36 3.394 13.754 4.823 10.539 5.7161 9.2887 6.6093 7.8597 6.9665 6.7879 7.1452 6.4306 8.9314 6.4306 11.79 5.0016 13.933 2.3222 11.432 1.429 15.362 0.35726 17.506-2.5008 15.541-5.8948 20.542-9.5402 27.22-11.115 26.778-12.126 26.272-12.884 25.515-12.126 21.978s-12.378 18.441-15.662 21.22-15.41 15.662-21.22 19.199-16.673 11.115-29.809 14.905-20.21 7.0734-37.135 6.5681-22.483-0.75786-35.619-4.2945-30.314-15.662-32.083-16.42-22.736-19.704-25.515-24.504-12.126-15.915-15.915-22.736-5.8102-11.62-8.5891-13.136-7.326-3.5367-7.326-3.5367l-187.42 336.19z" stroke-width="6"/>
   <path transform="matrix(1.1918 0 0 1.1551 -133.78 -102.08)" d="m786.91 412.22c0 34.182-27.71 61.892-61.892 61.892s-61.892-27.71-61.892-61.892 27.71-61.892 61.892-61.892 61.892 27.71 61.892 61.892z" fill-rule="evenodd" stroke-width="5.1137"/>
   <path transform="matrix(1.1097 0 0 1.0817 -87.245 -49.151)" d="m797.77 385.07c0 32.438-26.296 58.734-58.734 58.734s-58.734-26.296-58.734-58.734 26.296-58.734 58.734-58.734 58.734 26.296 58.734 58.734z" fill-rule="evenodd" stroke-width="5.4764"/>
   <path transform="translate(3.0314 -41.935)" d="m780.59 408.31c0 27.834-22.564 50.398-50.398 50.398s-50.398-22.564-50.398-50.398 22.564-50.398 50.398-50.398 50.398 22.564 50.398 50.398z" fill-rule="evenodd" stroke-width="6"/>
   <path d="m739.16 304.97c-24.361 0-37.355 14.991-44.832 35.139-2.2136 5.5753-4.56 13.035-5.5301 21.848-2.6817 24.36 22.378 47.357 47.831 47.357 24.339 0 36.013-24.368 45.969-42.781 2.4884-4.6021 2.6562-10.041 2.6562-15.469 0-25.453-20.641-46.094-46.094-46.094z" fill-rule="evenodd" stroke-width="6"/>
   <path transform="matrix(1.3146 0 0 1.2082 -131.29 -139.84)" d="m408.88 629.28c0 12.085-8.5173 21.882-19.024 21.882s-19.024-9.7969-19.024-21.882 8.5173-21.882 19.024-21.882 19.024 9.7969 19.024 21.882z" fill-rule="evenodd" stroke-width="4.761"/>
   <path transform="translate(-5.3589 .71452)" d="m676.29 1080.3c0 11.099-8.9972 20.096-20.096 20.096s-20.096-8.9972-20.096-20.096 8.9972-20.096 20.096-20.096 20.096 8.9971 20.096 20.096z" fill-rule="evenodd" stroke-width="6"/>
   <path d="m-177.84 1255.2s2.5262-89.932 4.7998-98.522 10.61-16.42 13.389-17.431 436.02 6.3155 436.02 6.3155l486.55 10.105 66.186-0.5052s6.0629 2.2736 9.5995 5.8102 6.3155 8.5891 6.5681 11.873-0.50524 90.438-0.50524 90.438-2.2736 1.7683-13.389 4.5472-150.31 7.3259-150.31 7.3259l-273.33-1.7683-524.94-13.389-60.629-4.7998z" stroke-width="6"/>
   <path d="m176.45 983.4 50.398 27.914 91.464-163.84s-6.7879 5.5375-11.075 7.3238-11.611 3.7512-15.362 3.8405-11.432-0.26794-15.183-1.2504-9.378-2.0542-12.057-3.126-5.8948-2.3222-7.949-3.4833-2.2329-1.2504-2.2329-1.2504-7.5024 15.541-8.1276 16.345-70.201 118.61-69.875 117.52z" stroke-width="6"/>
   <path d="m326.36 724.76s12.504-19.113 14.648-26.794 2.8581-17.863 2.3222-19.828-1.7833-7.9856-5.32-12.028-46.987-40.924-55.071-46.229-58.608-37.893-58.608-37.893-17.81-9.0943-18.568-11.115-2.021-4.4208-1.2631-5.9366 3.284-2.2736 5.8102-1.7683 62.776 41.177 62.776 41.177l68.586 52.04s1.5157 0.88417 2.7788 3.4104 2.6294 2.8023 5.3088 9.0543 4.4657 12.683 4.4657 12.683l12.504 12.504s6.0148 6.4307 8.4147 11.609 3.5367 14.526 3.663 19.831-6.1892 26.146-6.1892 26.146l-13.136 23.115s-3.2841-11.999-5.1787-15.915-8.8417-14.147-10.484-16.547-7.9575-8.2101-11.242-10.61-7.0734-5.8102-7.0734-5.8102l0.85489-1.0948z" stroke-width="6"/>
   <path d="m99.532 607.25s10.357 3.284 32.841 14.399 75.281 40.924 81.343 43.956 34.4 20.035 35.293 20.75 0.35726 0.44658 0.35726 0.44658-0.6252 0.89314 0.26794 2.2329 2.9474 1.6077 3.8405 1.6077 1.429 0.0893 1.429 0.0893 1.0718 0.35726 2.0542 2.3222 2.1436 3.7512 1.697 8.0383-9.0208 10.271-10.986 10.36-6.52-0.0893-15.273-1.697-30.188-12.593-30.188-12.593 0-4.1978-6.3413-8.2169-9.1101-5.5375-12.593-5.4482-4.9123 0-4.9123 0-28.134-19.649-40.817-26.616-42.156-25.365-45.55-28.759-3.7512-7.3238-3.2153-10.539 1.9649-5.5375 4.823-7.8597 6.252-2.6794 5.9305-2.473z" stroke-width="6"/>
   <path transform="matrix(.87103 .49097 .57852 1.432 -357.62 -332.38)" d="m264.59 637.41c0 1.5284-37.528 2.7674-83.821 2.7674s-83.821-1.239-83.821-2.7674 37.528-2.7675 83.821-2.7675 83.821 1.239 83.821 2.7675z" fill-rule="evenodd" stroke-width="6.1134"/>
   <path d="m178.72 683.94c-0.35726 2.6794 1.0718 5.0016 2.5901 6.1627s10.271 7.2345 12.772 7.949 6.6093 0.6252 7.3238 0.26794 0.35725-0.98246 0.44657-1.8756-1.6077-5.0016-6.1627-7.4131-5.4482-4.0192-9.5566-5.0016-7.5024 0.0893-7.4131-0.0893z" stroke-width="6"/>
   <path d="m259.73 670.1-9.9139 16.255s-0.89314 1.3844-0.3126 2.1436 0.9378 1.3844 2.0989 1.6523 2.4115 0.84849 3.1707 0.40191 10.182-16.702 10.182-16.702 0.3126-0.35726 0.17863-1.2057-3.8405-3.126-4.4657-3.2153-0.84849 0.58055-0.9378 0.66986z" stroke-width="6"/>
   <path d="m195.78 646.87s-1.1611 5.4482-1.1611 6.6986v1.3397l26.08 14.558s0.98246-0.26794 2.5008-1.7863 2.8581-4.7337 2.8581-4.7337-25.633-14.558-30.278-16.077z" stroke-width="6"/>
   <path d="m75.649 490.04 28.581 17.148s0.80383 0.71451 0.80383 1.429-4.9123 5.9841-7.1452 9.646-4.1085 9.1994-4.1085 9.1994l-30.813-18.577s-0.98246-2.2329-0.35726-3.2153-1.1611 1.7863 0.6252-1.0718 8.5742-13.933 9.4673-14.469 3.0367 0 2.9474-0.0893z" stroke-width="6"/>
   <path d="m102.98 512.28 8.8421 5.6268s-1.8756 0.98246-4.0192 4.7337-3.126 6.0734-3.126 6.0734l-8.6635-5.3589s2.3222-5.7161 6.9665-11.075z" stroke-width="6"/>
   <path d="m-14.469 389.38-5.4482 4.9123-5.3589 6.3413s-3.0367 5.3589-3.8405 7.5024-2.2329 5.8948-2.5008 8.2169 0.08931 5.1802 0.08931 5.1802l13.576 7.5917s-1.8756-6.9665-1.697-10.45 3.9298-11.432 5.1802-13.576 7.8597-10.271 7.8597-10.271l-7.8597-5.4482z" stroke-width="6"/>
   <path d="m720.09 841.93 7.5786 5.1787s16.42-22.736 17.431-25.009 11.115-21.725 11.62-23.241-0.37893-5.1787-0.37893-5.1787l-8.0838 4.9261-6.1892 4.7998-5.305 5.305-5.4313 6.3155-4.0419 5.4313-3.5367 6.0629-2.021 5.8102-0.88417 6.0629-0.75786 3.5367z" stroke-width="6"/>
   <path d="m488.19 684.42 3.663 1.5157s-0.25262 6.6944-0.50524 8.2101 0.75786-3.5367-0.37893 1.642-4.2945 8.3364-6.0629 9.8522-4.7998 3.284-4.7998 3.284l-5.9366-5.4313s4.1682-3.663 6.1892-6.5681 3.9156-5.1787 4.7998-7.0734 3.0314-5.305 3.0314-5.4313z" stroke-width="6"/>
   <path d="m335.73 607.49c-0.9617 6.1718 0.29286 9.0951 3.5726 14.255 0.71451 1.0718 7.0558 7.1452 9.0208 8.5742s10.093 9.8597 12.325 11.467 7.7704 2.8581 9.7353 3.5726l8.0383 1.3397-11.968-4.6444-4.1978-4.1978-2.6794-4.0192-1.7863-4.0192-1.429-5.0016-0.17863-4.4657 0.35726-4.823 1.1611-4.3764 1.7863-3.7512 2.3222-3.4833 3.0367-3.5726 2.8581-2.2329 2.9474-1.697 4.7337-1.7863 6.52-0.6252 5.0016 0.80383 4.7337 1.6077 3.126 1.7863-19.917-14.29s-4.2812-1.0555-6.4657-1.3046c-3.1663-0.36114-7.9476-0.5615-9.5566-0.26794-11.198 2.043-21.914 12.086-23.097 25.152z" stroke-width="6"/>
   <path d="m-17.595 429.3 5.0016 5.5375 7.2345 7.949 7.681 6.52 7.949 6.252 9.7353 8.3062 7.5917 5.5375 8.5742 5.4482 10.628 7.5917 8.2169 5.9841 7.0558 4.823 4.1978 2.8581 1.8756 0.80383 3.0367-4.9123 1.9649-2.1436 1.429-0.0893 2.5901 1.0718 5.5375 3.6619 9.9139 5.7161 4.823 2.6794 5.6268 3.4833 1.7863 1.429-0.17863 1.8756-1.3397 1.1611-0.44657 1.0718 9.0208 6.1627s0.0893-2.7688 1.5184-4.0192 4.0192-1.7863 5.2696-1.7863h5.0016s-2.5008-1.5183-2.3222-3.394 2.2329-2.4115 3.2153-2.5901 2.6794 0 2.6794 0 2.068 0.0317 5.3521 0.53693 10.231 2.2736 14.526 3.5367 25.136 10.231 28.041 11.368 39.788 21.22 39.788 21.22 1.0105-2.6525 3.0314-3.663 5.9366-0.12631 9.8522 1.7683 81.849 47.745 81.849 47.745l-62.65-39.409-38.651-22.988-43.198-25.893-16.673-8.8417-18.441-8.8417-33.725-15.536-22.736-10.105-19.199-8.3364-19.073-8.8417-17.304-7.4523-10.484-3.5367-7.5786-2.6525-7.4523-1.7683-8.3364-0.50524-3.0314 0.25262 1.2252 4.9543z" stroke-width="6"/>
   <path d="m670.7-88.72-10.863-10.863-10.105-7.8312-12.126-8.5891-8.0838-5.5576-10.61-5.5576-11.115-6.0629-11.368-4.7998-14.147-6.8207-9.0943-3.284-6.3155-2.021 118.98-204.37s15.915 0.25262 26.272 4.0419 26.02 8.3364 42.44 20.967 31.83 25.515 33.598 28.293l1.7683 2.7788-119.24 209.67z" stroke-width="6"/>
   <path d="m685.74-354.85s-0.75786-0.75786-0.25262-1.8946 9.8522-13.894 9.8522-13.894 11.115-7.326 32.083-1.3894 51.913 29.051 54.313 31.072 12.631 9.7258 15.157 17.052 2.7788 10.989 1.642 15.41-8.4628 9.7258-8.4628 9.7258-16.168-16.799-24.63-22.862-19.452-14.273-23.999-16.547-17.431-8.0838-21.978-9.7258-12.378-4.2945-17.052-4.9261-11.368-0.75786-16.673-2.021z" stroke-width="6"/>
   <path d="m688.14-361.04s-2.1473-5.305-0.12631-11.115 4.0419-10.105 9.9785-12.505 18.189-4.1682 26.525-3.0314 26.02 5.6839 37.261 12.378 23.873 16.168 30.188 22.609 14.778 18.062 16.041 23.494 1.642 8.3364 0.25262 13.01-5.0524 9.7258-7.1996 11.494-4.9261 3.9156-7.4523 4.5472l-2.5262 0.63155 4.0419-3.5367 3.4104-4.4208 0.75786-6.1892-0.63155-5.1787-2.021-5.6839-4.4208-6.947-5.5576-5.6839s-10.484-8.2101-15.031-11.368-21.094-13.515-25.893-15.915-15.157-7.1996-20.462-8.2101-11.747-2.3999-17.683-1.7683-10.231 2.7788-11.242 3.284-2.5262 3.0314-4.5472 5.6839-3.284 4.4208-3.663 4.4208z" stroke-width="6"/>
   <path d="m511.55-126.87s5.0524-9.0943 8.8417-10.863 8.8417-2.5262 16.168-1.7683 22.736 3.284 30.567 6.8207 37.135 16.42 46.482 22.736 22.988 15.662 31.577 22.736 17.178 11.873 24.251 19.704 10.863 11.62 12.631 14.399 3.0314 4.2945 3.0314 4.2945l5.1787-0.63155 4.2945 0.88417 2.5262-0.37893s1.8946-2.2736-0.88417-6.947-10.863-16.041-12.378-18.694-8.0838-10.863-10.105-12.884-3.2841-1.3894-3.2841-1.3894-10.61-11.115-11.873-12.126-17.178-12.631-20.588-14.905-21.346-13.389-25.009-14.778-19.831-8.7154-21.725-9.8522-16.547-7.1996-18.568-7.9575-7.1996-3.0314-15.41-4.0419-12.505-3.0314-18.568-2.2736-10.863 1.2631-12.884 2.1473-14.02 26.02-14.273 25.767z" stroke-width="6"/>
   <path d="m345.84 159.86 170.52-292.79s0.59796-4.1996 7.0286-5.45 8.3956-3.9298 33.046 3.0367 41.263 16.434 46.265 19.292 21.078 12.683 29.474 19.113 22.686 17.506 26.973 20.721 11.968 10.896 17.684 16.97 7.5024 10.003 7.5024 10.003-11.611-0.53589-17.506 1.0718-17.684 5.9841-22.15 9.1101-13.933 8.1276-16.523 11.343-8.6635 10.539-11.968 15.987-7.3238 15.183-8.1276 17.506-2.7687 2.3222-4.1978 7.681-5.7161 19.917-5.8054 31.439c-0.0583 7.5202 0.98246 15.273 2.9474 20.453 2.6638 7.0227 5.2696 13.844 5.2696 13.844s2.1436 5.0016 5.0016 10.36 5.1802 6.4306 6.6093 8.2169 1.7863 1.9649 1.7863 1.9649l-153.08 268.84s1.0718 2.3222-1.9649-1.9649-5.1802-8.0383-4.4657-11.611 0.71452-6.6093 3.7512-11.254 148.44-254.55 148.44-254.55l-125.04 213.64s-2.5008 8.7528-6.4306 11.432-7.681 5.8948-12.504 5.8948-15.541-3.9298-20.9-6.6093-1.7863-1.429-4.1085-8.2169-1.0718-7.5024-6.4306-12.147-11.611-8.5742-11.611-8.5742-6.4306-12.147-8.5742-17.148-24.115-41.442-25.901-44.836-13.933-21.971-15.541-24.294-29.117-38.584-29.463-38.48z" stroke-width="6"/>
   <path d="m404.42 244.24s25.901 14.469 39.12 24.294 17.506 12.683 24.829 20.542 8.3956 8.9314 10.182 14.826 1.2504 11.254 1.2504 11.254-5.3589 4.1085-8.2169 4.6444-15.362-2.6794-15.362-2.6794l-10.36-4.6444-1.7863-1.7863s1.0718-0.89315-0.71451-6.9665-2.1436-6.7879-3.9298-8.9314-8.7528-7.5024-11.254-8.7528-23.4-41.621-23.758-41.799z" stroke-width="6"/>
   <path d="m426.39 284.97 13.754 34.833 4.1085-8.3956v-6.252l-1.7863-4.4657-1.9649-5.0016-4.1085-4.2871-6.252-4.6444-3.7512-1.7863z" stroke-width="6"/>
   <path transform="matrix(1.2063 0 0 1.2063 -165.21 -3.3177)" d="m770.61 39.358c0 37.784-30.63 68.415-68.415 68.415s-68.415-30.63-68.415-68.415 30.63-68.415 68.415-68.415 68.415 30.63 68.415 68.415z" fill-rule="evenodd" stroke-width="4.974"/>
   <path transform="matrix(1.2063 0 0 1.2063 -160.74 -14.727)" d="m770.61 39.358c0 37.784-30.63 68.415-68.415 68.415s-68.415-30.63-68.415-68.415 30.63-68.415 68.415-68.415 68.415 30.63 68.415 68.415z" fill-rule="evenodd" stroke-width="4.974"/>
   <path d="m619.66 100.09s5.8948 6.252 8.5742 8.2169 9.646 6.4306 11.254 7.5024 9.1101 4.4657 12.147 5.3589 12.147 3.9298 15.183 4.1085 5.0016 0.71451 5.0016 0.71451l-146.12 267.23-3.9298 7.1452-55.554-31.439 153.44-268.84z" stroke-width="6"/>
   <path d="m459.97 354.99s-1.9649 15.719-1.6077 20.9 0.17863 11.075 1.2504 13.576 9.646 8.9314 11.075 10.182 18.22 9.4673 19.471 10.36 3.2153 3.394 3.2153 3.394 4.2871 4.6444 5.3589 5.1802 16.255 9.8246 16.255 9.8246 0.89314-3.394 3.2153-5.1802 7.3238-3.394 8.5742-3.0367 15.541 10.003 15.541 10.003 2.3222-0.35726 2.6794-1.6077-1.2504-5.0016-2.3222-5.7161-26.258-15.541-26.258-15.541-0.35726-2.3222 0.89315-3.0367 3.7512-4.1085 3.7512-4.1085l-55.196-31.26s-2.8581-4.823-3.9298-6.4306-2.3222-6.9665-1.9649-7.5024z" stroke-width="6"/>
   <path d="m607.07 486.02s3.3046 1.8756 5.1802 2.1436 2.2329 0.80383 7.4131-1.1611 7.7704-4.1978 9.5566-6.52 3.7512-7.7704 3.9298-8.5742-0.26794 2.5901 0.26795-1.429-0.0893-11.432-5.2696-17.059-15.362-11.343-15.362-11.343l-86.367-49.212-4.9123 7.5024-2.6794 2.8581-2.3222 2.4115 0.35725 2.0542 7.5917 4.3764 16.88 9.8246 2.4115 2.1436 1.3397 2.4115 0.0893 2.3222-1.2504 1.3397h-1.8756l-15.451-9.646-4.2871 0.89315-2.8581 1.3397-2.0542 2.0542-1.6077 2.0542-0.80383 1.5183-0.6252 1.6077-0.44657 1.8756-0.0893 2.0542 0.35726 1.5183 84.224 46.622 8.6635 4.0192z" stroke-width="6"/>
   <path d="m613.41 442.21 10.36 6.9219 2.6794 2.5455 2.6794 2.8581 2.7241 3.9298 0.84848 2.992s0.66986 3.0813 0.66986 3.3046 0.6252 3.6172 0.6252 3.7959-0.0893 1.7416-0.0893 1.7416 6.2967-0.17863 8.6188 0 11.432 1.8756 13.486 2.1435 5.7161 0.6252 13.754 3.9298 13.754 7.3238 15.719 8.7528 10.271 7.1452 15.898 13.04 8.1276 8.4849 12.683 18.577 7.0558 16.434 8.2169 25.365 0.17863 24.472-0.53589 31.528-7.1452 25.812-7.949 28.581-13.486 35.011-13.486 35.011-25.455 54.303-29.92 61.806-15.719 25.365-20.185 31.439-17.506 17.863-23.4 21.435-12.325 7.1452-20.006 10.182-16.612 5.0016-23.936 5.3589-18.042 0-24.294-0.89314-19.649-2.5008-31.975-9.1101-24.829-20.542-26.616-22.864-11.164-16.345-14.826-19.203-5.5375-5.9841-8.3956-7.681-6.9665-4.7337-10.628-6.9665-11.79-6.6986-12.504-6.8772-1.6077 2.1436-1.6077 2.1436l7.5024 4.0192 3.0367 3.4833 2.4115 4.823 2.5901 4.2871 10.986 16.523 7.3238 9.7353 6.6986 6.9665 13.129 11.7 5.9841 4.1085 5.6268 3.7512 6.52 3.4833 7.949 4.1978 7.2345 2.7688 8.4849 2.5008 7.8597 1.429 7.5024 0.53589 9.9139 0.44657 7.5024 0.17863 8.3956-0.53588 6.0734-0.89315 7.3238-1.9649 8.6635-2.5008 6.7879-2.1436 5.6268-2.1436 6.1627-3.0367 7.5024-4.4657 6.6093-4.1085 5.8054-4.2871 6.6093-6.3413 4.3764-4.3764 4.4657-4.2871 4.2871-5.0016s3.9298-5.4482 4.1085-5.8054 6.9665-10.182 6.9665-10.182 5.0016-8.3062 5.0016-8.6635 4.3764-7.949 4.3764-7.949l4.555-8.3956 2.9474-5.8948 4.0192-8.5742 5.3589-10.182 4.1978-9.5566 6.0734-12.504 5.0909-11.79 7.8597-20.542 6.8772-19.828 5.5375-16.702 2.2329-8.6635 1.2504-6.9665 0.89315-6.252 0.17863-5.1802-0.26795-13.04-0.6252-6.252-0.53588-6.9665-1.3397-8.2169-1.429-5.6268-3.2153-10.182s-1.9649-5.3589-2.4115-5.8054-3.126-4.9123-3.126-4.9123l-5.0909-9.0208-4.555-5.7161-5.8948-6.0734-5.2696-4.9123-6.1627-4.823-9.8246-6.52-6.7879-3.4833-10.36-4.0192-10.093-3.126-11.254-2.1436-11.79-0.80383-11.432 0.0893-8.3956 0.71451-8.7528 0.89315-4.4657 0.9378z" stroke-width="6"/>
   <path d="m110.75 165.29s5.7161 23.579 5.7161 25.723 3.9298 24.651 3.5726 27.152 0.71451 5.3589 0.71451 5.3589l92.53-17.148-11.075-58.59-91.458 17.506z" stroke-width="6"/>
   <path d="m110.93 166.36s1.2504 19.292 1.6077 24.115 4.1085 23.222 4.6444 26.258 3.2153 7.1452 3.2153 7.1452l-0.53589-7.8597-2.8581-20.9-3.0367-15.719-3.0367-13.04z" stroke-width="6"/>
   <path d="m202.21 147.7 5.1802-8.0383 5.0016 23.847 1.8756 11.343 1.7863 12.325 2.0542 17.684 0.44657 4.555-5.1802-3.0367-11.164-58.68z" stroke-width="6"/>
   <path d="m203.82 116.08c-1.429 1.2504-1.697 5.9841-1.3397 14.648s0.80383 15.183 0.80383 15.183l4.1978-6.52s-2.5901-20.632-3.6619-23.311z" stroke-width="6"/>
   <path d="m203.99 116.17 16.434-4.4657s2.7687 0.6252 5.3589 7.3238 7.1452 41.442 7.1452 41.442 3.6619 27.509 3.4833 30.813 0.28904 3.8166 0.28904 3.8166-2.1473 4.1682-1.8946 5.0524 0.37893 7.4523 0.75786 9.7258 1.2631 5.4313 1.2631 5.4313l-16.294 8.7154-1.7683-15.031-2.9051-26.272-5.1787-30.567-2.6525-12.378-3.4104-20.967-0.62752-2.639z" stroke-width="6"/>
   <path transform="matrix(.7519 -.42955 .42963 .75177 -89.476 135.99)" d="m195.53 315.22c0 27.066-10.405 49.008-23.241 49.008s-23.241-21.942-23.241-49.008 10.405-49.008 23.241-49.008 23.241 21.942 23.241 49.008z" fill-rule="evenodd" stroke-width="6.9291"/>
   <path transform="matrix(.90002 -.51342 .51426 .89854 -138.57 107.8)" d="m183.88 311.18c0 15.347-6.4369 27.788-14.377 27.788s-14.377-12.441-14.377-27.788 6.4369-27.788 14.377-27.788c7.9028 0 14.324 12.328 14.377 27.602" fill-rule="evenodd" stroke-width="5.793"/>
   <path transform="matrix(.72649 -.41511 .41511 .72649 -81.203 151.35)" d="m173.3 307.13c0 6.4178-2.3751 11.62-5.305 11.62s-5.305-5.2027-5.305-11.62 2.3751-11.62 5.305-11.62 5.305 5.2027 5.305 11.62z" fill-rule="evenodd" stroke-width="7.1709"/>
   <path transform="matrix(.26578 -.15763 .15187 .27588 76.068 246.72)" d="m173.3 307.13c0 6.4178-2.3751 11.62-5.305 11.62s-5.305-5.2027-5.305-11.62 2.3751-11.62 5.305-11.62 5.305 5.2027 5.305 11.62z" fill-rule="evenodd" stroke-width="19.239"/>
   <path d="m154.54 262.42 66.439-38.398 25.894-14.084 2.9402-1.4203s3.9298 0.17863 6.0734 1.0718 9.7353 5.6268 13.933 9.4673 9.0208 9.1994 11.79 13.219 7.4131 11.343 8.4849 14.826c2.3427 7.9562 4.1257 15.226 3.6619 23.49-0.22256 1.6178-0.61765 6.2266-1.429 8.7528-0.80383 1.9649-7.3238 6.6093-7.3238 6.6093l-87.26 49.748 3.2153-3.7512 1.1611-2.5901 1.0718-5.0016 0.0893-4.6444-0.71452-7.8597-1.1611-4.4657-1.697-5.5375-2.2329-5.0909c-3.4157-7.5554-8.1833-14.27-13.129-20.9l-5.6268-5.2696-4.9123-4.2871-5.3589-3.6619-5.3589-1.6077-4.555-0.35726-3.9932 1.7424z" stroke-width="6"/>
   <path d="m236.68 214.95-1.429-6.7879-0.89315-5.5375 1.2504-6.252s2.6794-4.6444 5.7161-6.4306 2.8581-3.0367 9.8246-4.1085 16.077 1.0718 20.542 3.394 15.183 9.4673 18.756 13.576 10.718 12.683 13.933 19.649 8.9314 18.042 10.36 28.402 2.8581 9.646 1.2504 24.294-6.6093 20.364-9.646 22.686-8.2169 2.1436-11.968 1.0718-7.5024-4.2871-9.646-6.0734-3.9298-4.823-3.9298-4.823l8.3956-5.3589 4.1085-5.5375 0.89315-11.432-1.429-8.0383-1.9649-8.0383-3.5726-8.9314-3.394-5.1802-3.5726-5.3589-5.0016-5.8948-7.8597-7.5024-5.5375-4.1085-6.0734-3.2153-5.1802-1.0718h-1.9649l-11.968 6.6093z" stroke-width="6"/>
   <path d="m300.45 314.27c-3.9298 6.252-4.823 15.005-4.823 15.005s1.429-1.2504 4.6444-1.0718 11.075 2.1436 13.754 3.2153 42.514 21.614 46.086 23.936 15.183 10.182 19.113 13.219 12.504 9.4673 14.826 12.147 2.5008 8.0383 2.5008 8.0383 10.003-15.719 10.539-16.791 0.17863-3.9298-0.35726-5.1802-12.683-11.79-20.006-16.255-22.15-15.362-31.975-20.542-29.831-14.648-33.582-16.077-13.219-3.0367-15.541-2.6794-5.0016 2.8581-5.1802 3.0367z" stroke-width="6"/>
   <path d="m296.17 329.63s0.35726-0.26794 1.8756 2.8581 4.4657 6.9665 4.7337 8.4849-1.5183 7.8597-1.5183 7.8597 16.255 4.6444 21.257 7.5917 17.506 8.8421 21.614 11.522 9.378 5.8054 13.933 9.1101 9.646 6.6986 14.38 11.075l4.7337 4.3764s1.1611-2.0542 3.2153-3.3046 10.896 0.35726 11.7 0.35726 4.1978-0.6252 4.1978-0.6252l-0.6252-4.3764-1.697-3.5726-4.1978-3.9298-6.1627-4.823-6.0734-4.6444-8.5742-6.0734-5.8054-3.8405-5.1802-3.394-7.2345-3.8405-8.2169-4.2871-6.7879-3.6619-8.6635-4.3764-7.1452-3.5726-6.252-3.0367-7.8597-2.1435c-0.35726-0.0893-5.0909-0.98246-5.0909-0.98246l-3.3046 0.26794-1.2504 0.98246z" stroke-width="6"/>
   <path d="m290.81 347.85s5.5375 0.17863 8.7528 0.71451 19.113 5.0016 30.903 11.79 33.046 19.113 41.263 28.045 8.0383 8.3956 8.2169 10.36-7.8597 15.541-8.5742 16.612c-1.211 2.5509-3.7892-5.0033-5.0016-6.4306-3.7512-3.7512-7.1452-8.7528-17.327-15.719s-28.581-17.148-36.083-20.185-8.3956-5.1802-19.649-7.8597-11.432-0.71451-11.432-0.71451l8.9314-16.612z" stroke-width="6"/>
   <path d="m282.41 364.55s0.26794 1.2504 1.1611 2.5008 4.9123 5.0909 4.9123 5.0909 0.6252-1.429 2.5008-1.429 4.555-0.17863 12.057 2.5008 27.062 12.683 30.724 15.451 18.935 11.343 22.507 15.094 6.9665 7.3238 7.5024 9.378 0.89314 3.5726 0.89314 3.5726l5.5375-0.89314s-1.2504-4.6444-3.2153-6.1627-12.683-13.308-14.648-14.201-12.861-8.1276-12.861-8.1276l-9.7353-5.5375-14.469-7.7704-9.4673-4.0192-6.252-2.8581-5.6268-1.697-4.7337-1.1611-5.0909-0.35726-1.697 0.6252z" stroke-width="6"/>
   <path d="m206.5 933.04-2.8581-2.8581s-18.577 33.046-20.364 35.369-3.394 5.3589-3.394 5.3589l3.0367 1.7863 23.579-39.656z" stroke-width="6"/>
   <path d="m200.24 927.5s-5.2696 4.9123-6.6093 7.3238-8.6635 15.451-10.271 19.203-3.7512 7.681-4.1978 10.628-0.71452 5.4482-0.26795 5.5375 1.429-0.44657 1.429-0.44657 5.6268-8.8421 6.52-10.986 4.6444-11.075 5.8948-13.754 3.7512-7.5917 4.823-9.0208 2.3222-3.2153 3.3046-4.2871 1.7863-1.7863 1.9649-2.3222-2.5901-1.8756-2.5901-1.8756z" stroke-width="6"/>
   <path d="m203.01 929.82-2.2329 5.6268-12.147 21.168 3.126-9.7353 5.4482-10.093 5.8054-6.9665z" stroke-width="6"/>
   <path d="m3.394 851.94s-68.594 0.35726-74.846 0.71452-22.329 1.429-26.794 2.3222-7.681 1.7863-10.896 3.9298-2.5008 22.329-2.5008 22.329 1.6077-1.9649 3.7512-2.8581 15.005-1.0718 19.113-1.6077 50.195-2.3222 56.625-2.5008 43.585 0.71451 43.585 0.71451 84.134 4.1085 90.029 4.2871 38.584 1.9649 43.943 3.0367 14.648 2.3222 17.506 3.394 8.2169 3.7512 8.2169 3.7512l0.17863-20.9s-15.183-6.0734-17.327-6.0734-31.081-4.4657-38.405-4.4657-56.983-4.2871-56.983-4.2871l-31.26-0.89314-23.936-0.89315z" stroke-width="6"/>
   <path d="m-110.57 860.43s-0.6252-1.1611-0.35725-2.4115 0.0893-2.0542 1.697-3.7512 4.2871-2.5901 5.4482-2.9474 6.1627-1.429 15.273-2.4115 19.738-2.2329 25.008-2.2329 21.168-1.9649 27.687-1.8756 61.359-0.17863 61.359-0.17863l43.764 1.5184 33.582 2.2329 29.831 3.3046 19.738 2.7688 9.7353 2.7688s5.5375 2.0542 6.8772 3.0367 1.7863 1.697 2.4115 2.8581 1.1611 2.5901 0.80383 3.9298-0.89314 1.7863-0.89314 1.7863l-7.5024-3.0367-7.8597-2.7688-6.6093-1.1611-12.504-1.697-16.077-2.3222s-7.7704-0.35726-8.1276-0.44657-12.325-0.35726-12.325-0.35726l-11.879-1.0718-19.024-1.5184s-14.201-0.89315-14.558-0.98246-13.397-0.35726-13.397-0.35726l-11.7-0.35726-15.719-0.26794-18.756-0.26794-30.278-0.17863-11.522 0.26794-18.488 0.26795-16.166 0.6252-7.5917 0.98246-12.504 1.6077-6.6986 1.697-2.6794 2.9474z" stroke-width="6"/>
   <path d="m198.1 928.39s-7.5024-5.0016-8.7528-7.681-2.6794-6.4306-4.1085-7.8597-6.4306-4.2871-6.4306-4.2871l-13.933-4.6444-75.203-26.258-52.696-17.863s-12.325-4.1085-14.469-4.6444-5.3589-3.394-7.681-3.9298-5.8948-1.0718-5.8948-1.0718l-4.6444 1.6077-3.5726 3.2153-1.6077 3.394-0.53589 3.5726 0.53589 3.9298 1.6077 4.1085 3.394 2.6794s2.8581 1.7863 3.5726 1.7863 3.2153 0.17863 3.2153 0.17863 2.8581 1.0718 4.1085 1.7863 106.11 63.413 107.71 64.485 22.507 15.362 24.651 16.791 8.3956 6.7879 10.718 8.5742 6.0734 2.3222 7.5024 1.7863 4.823-2.3222 6.0734-2.5008 7.3238 0.53589 7.3238 0.53589l1.2504-4.4657 1.9649-4.6444 2.5008-5.5375 2.8581-5.3589 2.6794-5.1802 2.8581-5.1802 2.5008-3.9298 2.5008-3.394z" stroke-width="6"/>
   <path d="m59.662 909.37h9.9139l55.911 33.404 7.4131 4.9123 14.38 10.093 11.075 8.8421-51.266-30.903-47.426-26.348z" stroke-width="6"/>
   <path d="m-110.93 880.7-1.697 2.5901s-0.53588 2.0542-0.35726 2.9474 0.71452 3.6619 1.2504 4.1978 1.7863 1.8756 1.7863 1.8756 0.6252-2.2329 1.3397-2.7688 3.0367-1.6077 3.8405-1.9649 8.3062-1.5183 12.236-1.8756 29.474-1.2504 29.474-1.2504l36.262 0.35725 55.732 0.71452 66.629 1.9649 37.691 2.1435s10.896 0.71452 13.576 1.2504 7.1452 1.7863 8.7528 2.5008 5.5375 1.7863 6.7879 2.8581 2.5008 3.2153 2.5008 4.1085-0.17862 1.6077-0.17862 1.6077 3.2153 0 4.2871-0.71452 3.0367-1.6077 3.394-3.0367 0.71451-3.394 0.89314-4.2871-1.7863-4.4657-1.7863-4.4657l-4.4657-2.3222-8.9314-3.0367-9.2887-1.429-12.147-1.429-14.29-0.71452-17.506-1.0718-21.614-1.0718-21.078-1.0718-35.904-1.429-31.081-1.2504h-20.006l-22.686 0.17863-19.113 0.89314s-13.933 0.35726-15.898 0.71452-15.898 0.89314-17.863 1.0718-5.3589-0.71452-7.8597 0.89314-2.5008 2.5008-2.6794 2.3222z" stroke-width="6"/>
   <path transform="translate(-4.6444 -2.9474)" d="m21.614 865.34c0 3.4036-2.7591 6.1627-6.1627 6.1627s-6.1627-2.7591-6.1627-6.1627 2.7591-6.1627 6.1627-6.1627 6.1627 2.7591 6.1627 6.1627z" fill-rule="evenodd" stroke-width="6"/>
   <path d="m492.03 669.47s1.0718 0.80383 1.8756 0.71451 3.126-3.126 4.3764-4.9123 7.8597-12.057 8.3956-13.933-0.98246-8.8421-1.697-9.8246 0.35725-0.44657-1.2504-2.2329-20.006-20.542-31.081-29.027-82.794-57.786-82.794-57.786l-51.981-32.868-44.568-26.616-50.463-29.206-45.104-25.187-44.657-23.4-48.14-23.132-39.656-17.595-32.064-13.397s-10.986-4.7337-22.864-7.3238-15.898 1.3397-16.523 2.1436-6.0734 7.949-8.0383 14.29-0.37959 4.7113-0.37959 4.7113 1.0048-2.8357 4.1308-3.3716 3.4833-0.53589 3.4833-0.53589 5.0909-0.26794 11.968 1.697 45.282 18.667 45.282 18.667l57.965 26.705 39.12 19.738 49.391 26.616 40.102 22.597 32.778 19.113 29.117 16.702 31.439 19.024 34.475 21.971 30.456 19.649 24.383 17.148 16.97 11.7 27.509 21.435 16.97 15.451 3.8405 4.1978 2.5901 3.394 2.9474 4.3764 1.6077 4.555 0.26794 2.3222-0.17863 1.429z" stroke-width="6"/>
   <path d="m-14.246 373.3c-0.84849 3.4386-1.2951 4.689-1.0271 6.3413s4.1978 6.0734 7.0558 8.0383 8.0383 2.4562 8.0383 2.4562l2.7688-1.4737 2.992-1.1611 3.3046-0.40191 3.9745 0.17863 5.0909 0.35725s3.5279 0.40192 3.7066 0.40192 10.807 2.6348 10.807 2.6348l5.2249 1.429 19.337 7.815 28.134 12.638 49.302 23.49 19.471 9.6906 12.37 6.3413 16.568 9.1547 12.459 6.4753 59.26 32.868 13.933 7.815 13.531 8.1723 14.156 8.9314 17.952 10.852 15.407 9.5566 7.8597 4.7337 10.762 6.6986 15.451 9.512 6.6986 3.7959c0.40191 0.22329 4.1531 2.7241 4.1531 2.7241l15.809 9.9139 16.3 10.137 12.37 7.9043 7.0112 4.2424-16.88-12.236-15.049-10.539-5.8501-3.8852-36.217-23.311-33.404-20.9-13.486-8.1276-32.957-18.845-15.451-8.8421-24.919-14.648-12.951-7.5917-11.343-6.3413-16.88-9.1994-15.63-8.3062-30.01-16.166-24.026-12.057-36.172-17.238-24.026-10.896-21.168-9.646-10.807-4.4657-11.164-4.9123-8.8421-3.3493-4.957-1.697-6.8772-1.3844-5.9394 0.40191-3.5726 0.80383-1.6523 1.1164z" stroke-width="6"/>
   <path d="m-2.6794 353.48s0.08931-2.7688 1.0718-4.4657 6.0734-7.7704 7.8597-9.0208 13.397-1.2504 19.738 0.26795 60.287 21.525 60.287 21.525l41.353 19.381 80.472 40.102 84.67 48.587 66.986 42.335 30.01 17.506 49.659 30.546 46.979 37.691s13.397 12.325 19.828 21.614 6.4306 10.539 6.6093 12.147-2.8581 9.4673-4.4657 11.432-2.1435 2.1436-2.1435 2.1436l-1.429-4.1085-2.1436-3.394-17.506-16.702-10.986-9.9139-36.887-26.348-23.49-15.987-18.756-13.04-15.719-10.182-35.458-22.418-19.917-11.968-35.458-21.168-20.632-11.79-25.008-14.29-24.829-14.201-40.727-21.793-22.061-11.611s-17.684-8.3956-21.614-10.45-39.656-18.667-39.656-18.667l-31.349-14.022-21.346-8.8421-13.665-5.6268-8.7528-2.9474-8.1276-2.0542-7.3238-1.1611-3.3046 0.17863-2.7688 0.71452z" stroke-width="6"/>
   <path d="m11.343 338.92s10.003-0.98246 17.952 0.0447 13.576 1.8309 23.936 4.689 67.254 26.884 67.254 26.884l33.314 15.451 111.29 59.037 87.528 52.517 73.595 46.444 32.868 25.365 22.507 18.399 12.147 12.147 8.0383 11.075 4.4657 7.5024-12.638-13.754-13.219-11.745-7.1005-5.6715-26.705-20.989-15.898-12.325-16.631-9.7062-30.377-18.252-27.851-16.294-14.841-9.7258-18.125-11.178-12.063-7.7049-22.104-13.515-20.273-11.684-24.188-14.02-26.209-14.968-15.662-8.9048-25.072-12.189-17.052-8.7154-20.652-9.9153-27.157-13.389-18.694-8.5259-13.073-5.7471-19.894-7.0102-13.768-5.0524-9.2206-3.3472-6.6313-2.3999-6.1892-1.8946-5.6208-0.88417-5.1155 0.12631-2.8669-0.17291z" stroke-width="6"/>
   <path d="m149.87 387.24c0 1.3318-1.0797 2.4115-2.4115 2.4115s-2.4115-1.0797-2.4115-2.4115 1.0797-2.4115 2.4115-2.4115 2.4115 1.0797 2.4115 2.4115z" fill-rule="evenodd" stroke-width="6"/>
   <path transform="translate(-12.884 -9.0943)" d="m724.01 40.369c0 13.673-11.084 24.757-24.757 24.757s-24.757-11.084-24.757-24.757 11.084-24.757 24.757-24.757 24.757 11.084 24.757 24.757z" fill-rule="evenodd" stroke-width="6"/>
   <path transform="translate(-1.0105 -1.2631)" d="m695.21 32.664c0 4.5343-3.6758 8.2101-8.2101 8.2101s-8.2101-3.6758-8.2101-8.2101 3.6758-8.2101 8.2101-8.2101 8.2101 3.6758 8.2101 8.2101z" fill-rule="evenodd" stroke-width="6"/>
   <path d="m683.84 14.728c0 1.744-1.4138 3.1577-3.1578 3.1577s-3.1577-1.4138-3.1577-3.1577 1.4138-3.1577 3.1577-3.1577 3.1578 1.4138 3.1578 3.1577z" fill-rule="evenodd" stroke-width="6"/>
   <path transform="translate(11.999 31.956)" d="m683.84 14.728c0 1.744-1.4138 3.1577-3.1578 3.1577s-3.1577-1.4138-3.1577-3.1577 1.4138-3.1577 3.1577-3.1577 3.1578 1.4138 3.1578 3.1577z" fill-rule="evenodd" stroke-width="6"/>
   <path d="m288.24 372.31-32.967 53.682s0.50524-0.25262 4.0419 0.12631 36.504 17.178 36.504 17.178 17.683 10.61 19.831 12.126 7.1997 5.8102 8.2101 6.8207 6.3155 7.7049 6.5681 8.7154l0.25262 1.0105 33.851-55.703-1.3894-4.2945-3.9156-5.0524-4.0419-4.1682-5.5576-4.0419-5.305-3.4104-6.4418-3.7893-11.242-6.947-10.484-5.5576-7.1996-3.4104-7.8312-3.0314-7.1997-1.8946-3.5367 0.12631-1.642 0.75786-0.50524 0.75786z" stroke-width="6"/>
   <path d="m254.89 426.5s0.75786 0.44208 0.6947 1.7052-0.25262 2.2104-0.25262 2.2104 1.8946-0.5684 6.8207 1.7052 25.451 11.494 28.483 13.073 9.5364 5.305 12.126 6.8839 12.442 8.2733 15.157 10.926 8.3364 7.8944 9.5995 9.7258 1.3894 2.5894 1.3894 2.5894l1.7052-3.9156-1.5157-2.7788-3.2209-3.9156-5.1787-5.2418-5.4313-4.1682-8.0207-5.0524-9.3469-5.6208-9.0312-4.7366-10.673-5.4313-7.8944-3.7893-6.505-2.842-4.3577-1.7683-2.7157-0.25262-1.5789 0.44209-0.25262 0.25262z" stroke-width="6"/>
   <path d="m255.21 430.22-4.2945 7.0102 42.44 24.757 29.809 17.873 2.842 1.7683s1.5789-2.3999 2.021-3.8524 0.88417-2.7788 0.88417-2.7788l-4.6735-5.9366-5.9366-5.4945-7.768-6.2523-7.4523-4.9892-7.8944-4.6735-8.0207-4.2314-10.926-4.9261-6.947-3.0314-7.768-3.5998-4.7366-1.5157h-1.2631l-0.31578-0.12631z" stroke-width="6"/>
   <path d="m257.92 98.219s20.336-4.2945 22.483-4.0419 15.536 9.4732 23.241 16.799 43.577 50.524 43.577 50.524l25.136 32.588 23.999 37.514 21.725 38.019 9.3469 17.936 9.3469 23.367s3.284 8.7154 3.284 9.8522-2.3999 8.7154-4.6735 12.378-7.3947 8.711-7.3947 8.711 0-2.6794-1.0718-8.1276-8.2169-20.364-8.2169-20.364l-14.916-29.117-12.415-22.239-15.719-26.348-17.774-26.08-15.183-20.721-14.29-18.845-16.97-21.078-14.022-16.523-15.719-16.97s-4.2871-4.823-9.7353-9.2887-9.1994-6.52-10.718-7.2345-3.2153-0.89314-3.3204-0.71177z" stroke-width="6"/>
   <path d="m228.11 102.86s26.258-4.1085 28.491-4.1085 2.6794-0.44657 4.9123 0.6252 9.646 5.3589 18.22 14.29 33.761 37.959 33.761 37.959l30.367 39.12 19.471 26.973 14.648 22.15 16.88 28.67 10.45 18.309 10.896 21.793 5.3589 10.896 3.9298 10.271 2.4115 10.182-0.17863 4.2871-14.694 25.634s1.5157-0.63154-0.25262-8.3364-11.368-28.167-15.662-37.261-32.335-58.102-32.335-58.102l-41.935-62.902-45.977-60.629s-19.452-24.504-23.999-28.041-8.8417-8.5891-24.763-11.779z" stroke-width="6"/>
   <path d="m227.61 102.64s-1.8946-0.12631-2.021 6.947 0.37893 9.8522 0.37893 9.8522l3.0314 14.02 2.7788 18.189 1.8946 11.115 1.0105 10.61 0.88416 9.5995 1.1368 11.62 1.7683-2.2736 3.9156-3.284 4.0419-2.5262 4.5472-0.88417s3.284-0.63155 8.0838 0.12631 11.62 2.5262 14.399 4.2945 11.368 7.9575 11.368 7.9575 10.231 7.7049 15.031 16.42 9.4732 18.062 9.4732 18.062l3.5367 9.5995 2.6525 11.747 1.0105 9.5995-0.25262 9.7258-1.1368 8.5891-2.7788 8.8417-3.5367 5.305-5.8102 3.663-7.5786-0.12631-4.7998-2.3999-6.8207-5.1787-3.0314-3.1577-6.5681 3.5367-5.6839 3.4104s0.12631 3.1578 2.3999 3.4104 7.9575-2.7788 7.9575-2.7788 2.5262 4.9261 5.5576 5.8102 9.2206-1.0105 9.2206-1.0105l9.9785 10.736 2.3999-0.63155 3.7893 0.25262 5.4313 0.88417 5.305 1.2631 10.484 4.6735 8.7154 4.1682 9.2206 4.5472 10.61 5.6839 11.873 7.5786 8.968 6.0629 9.7258 6.6944 7.9575 5.8102 4.2945 3.8524 3.5367 3.0314 1.7052 2.6525-0.0632 2.3367s-0.63155 1.5157 0.50524 1.7052 3.1578-0.25262 3.8524-0.94732 1.8315-2.2736 1.7052-2.6525-0.25262-4.7998-0.25262-4.7998l-1.4526-5.2419-2.463-7.3891-5.305-11.62-5.2418-11.684s-13.289-25.561-15.433-28.776-20.542-37.155-25.365-43.05-25.544-38.405-25.544-38.405l-24.651-34.475-17.863-23.222-15.005-19.649-12.861-15.898-9.671-10.114s-4.9892-4.4208-6.8839-5.4313-6.8839-3.3472-8.9048-3.9156-6.3786-1.8315-7.1997-1.9578-1.8946-0.44208-1.9578-0.50524z" stroke-width="6"/>
   <path d="m246.68 186.26s20.967-8.8417 23.241-8.8417 11.494 0.50524 16.926 4.1682 15.41 6.0629 27.283 22.862 16.42 31.072 17.052 33.851-0.25262-1.8946 0.75786 3.7893 3.1577 15.41 1.3894 28.167-10.373 23.041-12.631 23.999c-17.557 7.4523-23.746 5.305-23.746 5.305l6.4418-0.25262 3.1577-1.5157 3.663-3.5367 2.2736-3.5367 2.021-6.8207 1.2631-5.1787 0.63155-5.6839v-6.3155l0.12631-9.2206-1.3894-8.7154-2.1473-8.2101-3.9156-8.968-5.305-10.105-6.1892-11.494-8.3364-8.8417-8.0838-6.1892-9.4732-6.0629-8.0838-2.6525-5.8734-0.94732h-5.5576l-5.4945 0.94732z" stroke-width="6"/>
   <path d="m214.73 542.32-10.357 22.988s1.7683-2.3999 3.1577-2.3999 4.4208 0.50523 5.5576 1.3894 11.242 7.5786 11.242 7.5786l16.673 10.989 12.631 8.7154 22.483 14.778 14.778 11.242 21.346 16.041 16.547 13.01 12.126 9.2206 3.9156 3.9156 2.2736 3.5367 3.9156 7.8312 2.7788 7.8312 0.75785 2.7788 4.2945 4.4208 8.7154 8.3364s2.9051 3.663 4.9261 6.5681 4.0419 6.947 4.7998 10.231 1.5157 9.7258 1.5157 13.01-0.50524 9.2206-1.5157 12.252-4.2945 14.905-4.2945 14.905l36.125 20.21 43.703-77.933 1.1368 0.25262 16.547 9.4732 8.968 5.9366 0.88417-0.50524-10.105-8.0838-10.357-12.505-4.1682-4.2945-10.421-8.968-4.7998-3.5998-11.81-8.968-10.168-6.7576-12.757-9.0311-8.5259-5.5576-6.126 3.8524-6.6944 2.021-6.3786-0.12631-5.9997-1.1368-5.9997-1.5789-4.7998-1.8946-3.9156-3.2209-18.694-17.873-2.3999-4.8629-0.75786-4.5472v-3.7261l0.56839-3.663-17.999-10.673-26.462-15.41-19.325-11.494-22.673-13.01-16.041-9.3469-5.8102-3.2841s-3.6946-1.9578-5.9366-2.0841-2.8104-0.44208-4.0103 0.50524-2.3683 2.4946-2.3683 2.4946l-0.69471 0.22104z" stroke-width="6"/>
   <path d="m342.3 675.96s-25.767-10.863-30.314-13.136-10.989-5.9366-11.873-5.305-1.7683 2.021-1.2631 2.9051 3.4104 2.3999 3.5367 3.1578-0.12631 1.8946-1.1368 1.8946-3.7893-0.63155-4.5472-0.63155-1.5157 0.75786-1.3894 1.642 42.314 27.283 43.703 28.167 2.9051 0.12631 2.9051 0.12631l1.2631-8.2101 0.12631-5.6839-1.0105-4.9261z" stroke-width="6"/>
   <path d="m123.91 512.33s5.0524 1.1999 14.21 5.0524 25.83 10.673 32.967 14.462 25.451 13.01 28.104 14.778 10.799 6.505 10.799 6.505l4.4208-10.294-15.473-8.6522-27.093-13.894-20.083-8.2101s-8.147-3.0946-13.831-4.0419-5.1787-1.3262-11.052-1.1999-5.0524 0.75786-5.1787 1.5789 0.18946 2.021 0.63155 2.5262 1.7683 1.5157 1.5789 1.3894z" stroke-width="6"/>
   <path d="m104.65 528.75c-0.18947 2.7157-1.7052 2.7788-0.25262 4.9261s43.387 17.241 45.282 18.125 1.7683 0.37893 4.1682 1.7683 20.841 10.484 20.841 10.484l15.283 7.7049 22.104 11.873 11.999 6.947 16.168 9.8522 27.157 18.694 13.894 9.8522 15.283 10.231 25.582 18.925s13.665 9.8246 16.345 13.04 4.6444 5.7161 4.6444 5.7161l-3.2153-8.0383-2.3222-3.4833-8.8421-7.681-8.3956-7.4131-19.024-15.541-15.005-12.504-16.255-10.807-20.274-13.129-14.558-9.1994-12.772-8.1276-9.646-5.2696-5.6268-3.7512-1.429-0.98246-0.98246-1.8756-0.44657-2.9474 0.89315-2.4115 1.5183-3.394 3.126-7.0558-10.003-5.9841s-12.415-6.6093-18.488-9.5566-17.684-9.0208-17.684-9.0208l-12.951-5.5375-11.432-4.9123-7.949-3.126-7.5024-2.5008-3.8405-0.35725h-3.394s-2.5008 1.1611-2.8581 1.3397-1.9649 2.9474-1.9649 2.9474l0.44657 2.6794s-0.53589-0.35725-1.429 0.35726-0.98246 0.71452-0.98246 0.71452" stroke-width="6"/>
   <path d="m104.58 533.73s-3.663-1.3894-8.2101-1.3894-7.5786 2.1473-8.0838 3.4104-0.75786 4.0419-0.75786 4.0419 1.1368-1.7683 3.0314-1.7683 44.461 18.315 44.461 18.315l25.641 12.505 17.178 9.0943 21.094 11.368 12.757 8.4628 28.42 15.157 14.273 9.0943 19.578 12.126 12.884 7.4523 8.968 5.5576s4.9261 3.1578 6.3155 5.0524 2.6525 2.2736 3.4104 4.0419 1.2631 4.2945 1.2631 4.2945 39.788 21.094 34.104 14.273c-0.65192-0.78231 0.88416 0.75786-1.642-3.4104s-37.009-28.293-37.009-28.293l-24.378-16.799-15.536-11.115-22.988-15.41-32.083-18.82-24.883-13.263-12.757-6.4418-17.81-8.968-11.368-4.1682-11.494-4.1682-11.999-4.7998-8.5891-3.4104-3.7893-2.021z" stroke-width="6"/>
   <path d="m87.659 539.67s-0.6947 0.63155-0.63155 1.7683 4.9261 5.9366 6.126 7.2628 9.5995 7.5154 12.631 9.0312 1.8315 1.2631 1.8315 1.2631 0.12631-2.1473 2.5262-3.9156 2.7788-2.3999 5.305-2.7788 6.947-0.75786 7.9575-0.37893 4.2945 1.2631 4.2945 1.2631l-21.599-9.2206-7.326-2.9683-4.2314-1.5789-3.7261-1.1368h-1.8315l-0.82101 0.6947-0.50524 0.69471z" stroke-width="6"/>
   <path d="m83.617 565.31s-3.284 5.305-3.5367 6.5681-0.25262 3.284-0.25262 3.284 3.7893-1.2631 6.5681-0.25262 30.062 13.136 30.062 13.136l28.546 14.652 41.177 21.473 26.778 15.157 36.63 21.978 15.915 11.115 28.293 17.936 5.0524 5.5576 6.5681-14.147s-3.5367-4.2945-6.5681-7.0734-49.766-35.619-52.04-36.882-5.0524-4.0419-5.0524-4.0419-2.5262 6.3155-4.5472 6.5681-46.735-25.767-46.735-25.767l-47.24-25.262 2.2736-4.5472s-14.399-9.3469-22.988-12.378-27.788-12.631-30.82-13.136-7.326 5.5576-8.0838 6.0629z" stroke-width="6"/>
   <path d="m112.29 553.57s-4.4208 2.2736-4.5471 5.0524-0.63155 3.7893 0.63154 6.6944 6.1892 3.9156 6.1892 3.9156l13.515 5.8102 9.2206 4.5472 8.7154 5.4313-2.3999 4.5471 54.818 29.556 32.209 18.062 6.4418 3.284s3.1577-2.6525 3.9156-4.1682 1.1368-2.3999 1.1368-2.3999l20.841 14.778 31.198 22.357s8.2101 7.326 8.8417 7.5786 1.8946-0.25262 3.1577-1.2631 1.3894-2.7788 1.3894-2.7788l-11.62-7.9575s0.12631-2.1473 0.75786-2.021 3.663 1.3894 4.5472 1.1368 1.5157-1.8946 1.2631-2.2736-4.0419-2.3999-4.0419-3.2841 1.3894-2.6525 1.8946-2.9051 6.6944 3.284 6.6944 3.284-0.37893-3.663-3.7893-6.5681-8.3364-6.0629-17.052-11.999-38.524-24.63-38.524-24.63l-23.367-12.505-21.852-12.505-34.609-18.82-26.525-13.641-12.252-6.1892-6.1892-2.1473-4.6103 0.12631-3.5998 0.75786-2.3999 1.1368z" stroke-width="6"/>
   <path d="m209.93 625.06c11.747-3.663 16.168-4.6735 19.325-3.7893s6.4418 2.7788 8.5891 4.6735 4.9261 4.0419 3.5367 6.1892-3.1577 3.4104-5.5576 3.4104h-8.3364l-17.557-10.484z" stroke-width="6"/>
   <path d="m145.51 584.01 70.733 38.903 3.663-1.0105 3.0314-0.63155s-23.999-14.02-27.662-16.294-19.452-10.357-23.367-12.757-19.578-10.484-21.094-11.242-3.1578-1.642-4.1682 0.25262-1.0105 2.9051-1.1368 2.7788z" stroke-width="6"/>
   <path d="m240.81 633.01 1.3894 0.82101-2.021 3.4104-3.4104-1.7683 2.0841-0.63155 1.7683-1.3263 0.18947-0.50523z" stroke-width="6"/>
   <path d="m298.34 695.92s-4.0419 1.0105-6.8207-0.25262-29.051-17.052-29.051-17.052l3.1578-5.8102 11.62 7.0733 8.7154 5.4313 7.0733 4.5472 3.7893 3.663 1.5157 2.3999z" stroke-width="6"/>
   <path d="m79.449 575.29s-0.12631 2.6525 2.6525 4.6735 17.304 12.505 20.967 14.652 47.619 29.051 47.619 29.051l44.587 25.767 0.50523-2.7788 30.062 15.915-1.1368 3.4104s1.2631 1.5157 6.8207 4.4208 14.905 7.0733 17.178 7.7049 6.6944-0.37893 6.6944-0.37893l5.305-8.7154-19.957-13.136-38.903-22.736-33.219-18.062-19.452-9.9785-18.694-10.231-17.052-8.4628-13.894-6.0629-8.4628-3.663-4.7366-1.9578-3.8524-0.37893-2.021 0.50524-1.0105 0.44209z" stroke-width="6"/>
   <path d="m124.54 597.77 31.704 18.189 38.777 21.22s24.63 14.273 25.136 14.652 16.168 10.105 16.168 10.105l9.8522 7.4523s2.1473 1.7683-0.25262 1.7683-18.946-8.3364-22.988-10.105-38.903-21.22-38.903-21.22l-35.24-20.588c-3.0314-1.7683-18.82-11.368-21.473-13.515s-10.736-6.947-11.62-8.5891-0.63155-2.6525 0.12631-2.6525 8.968 3.2841 8.7154 3.2841z" stroke-width="6"/>
   <path d="m-108.37 889.55s-1.2631 1.5157-1.1368 2.021-0.25262 1.3894 2.6525 2.7788 13.768 4.0419 17.81 4.9261 27.409 4.1682 31.956 4.1682 25.388 1.3894 30.441 1.3894 17.557 1.8946 48.25 2.5262 47.24 1.3894 47.24 1.3894l-38.398-23.115-35.746-0.37893-38.398-0.88417-26.399 0.25262s-13.768 0.44209-14.084 0.44209-11.557 0.88417-11.999 1.0105-5.8102 1.0105-6.4418 1.1368-4.2945 1.0736-4.2945 1.0736l-1.4526 1.2631z" stroke-width="6"/>
   <path d="m122.65 889.11s7.768 0.44208 9.9785 0.50524 7.4523 0.25262 11.368 0.82101 7.5154 1.2631 9.4101 1.9578 3.9788 1.1999 5.9997 2.2104 3.284 1.3262 3.9788 2.5262 1.8315 2.021 1.7683 3.0946-0.44208 2.2104-0.6947 2.6525-0.50524 0.75786-0.50524 0.75786l-41.303-14.526z" stroke-width="6"/>
   <path d="m31.198 886.9s-69.849-0.75786-71.112-0.75786h-28.546s-20.588 0.50524-21.725 0.50524-10.863 1.2631-10.863 1.2631l-2.7788 0.63154c-0.25262 0.0632-3.0314 1.2631-3.2841 1.5789s-0.88416 1.0105-0.88416 1.5157 1.0105 1.642 1.8946 2.021 9.0312 2.6525 10.926 2.9683 10.105 1.7052 12.252 2.0841 17.873 2.3999 19.325 2.3999 11.684 0.94732 13.452 0.94732 17.115 0.75786 17.115 0.75786 19.073 0.88417 19.452 0.88417 13.199 0.82101 14.084 0.82101 14.652 0.69471 17.052 0.94733 15.662 0.25262 19.073 0.25262 11.368 0.12631 14.147 0 9.4732-0.50524 10.484-0.63155-30.089-18.312-30.062-18.189z" stroke-width="6"/>
   <path d="m127.99 890.52s10.003 0.71452 11.968 0.89315 6.3413 0.6252 8.8421 1.2504 4.7337 0.89314 7.7704 2.4115 4.7337 1.9649 5.5375 2.8581 1.2504 1.6077 1.3397 2.4115-0.35726 2.4115-0.35726 2.4115l-35.101-12.236z" stroke-width="6"/>
   <path d="m761.14 77.763c3.9298-6.0734 4.4657-6.6093 4.4657-6.6093s0-0.71452 3.2153 0 4.2871 1.7863 4.2871 1.7863-1.2504 1.9649-1.2504 2.8581 3.0367-2.3222 3.0367-2.3222 4.2871 2.3222 5.5375 3.9298 3.2153 4.4657 3.394 5.5375-5.0016 7.5024-5.0016 7.5024l-17.684-12.683z" stroke-width="6"/>
   <path transform="matrix(1.1622 0 0 1.1622 -130.91 -64.125)" d="m788.11 357.5c0 21.901-17.754 39.656-39.656 39.656s-39.656-17.754-39.656-39.656 17.754-39.656 39.656-39.656 39.656 17.754 39.656 39.656z" fill-rule="evenodd" stroke-width="5.1628"/>
   <path d="m679.55 355.64c0 1.6742-1.3572 3.0314-3.0314 3.0314s-3.0314-1.3572-3.0314-3.0314 1.3572-3.0314 3.0314-3.0314 3.0314 1.3572 3.0314 3.0314z" fill-rule="evenodd" stroke-width="6"/>
   <path transform="translate(110.9 28.293)" d="m679.55 355.64c0 1.6742-1.3572 3.0314-3.0314 3.0314s-3.0314-1.3572-3.0314-3.0314 1.3572-3.0314 3.0314-3.0314 3.0314 1.3572 3.0314 3.0314z" fill-rule="evenodd" stroke-width="6"/>
   <path transform="matrix(1.1129 0 0 1.1129 -53.462 -102.37)" d="m372.26 802.28c0 36.699-29.751 66.45-66.45 66.45s-66.45-29.751-66.45-66.45 29.751-66.45 66.45-66.45 66.45 29.751 66.45 66.45z" fill-rule="evenodd" stroke-width="5.3913"/>
   <path transform="matrix(1.0383 0 0 1 -27.792 -19.704)" d="m369.33 810.61c0 36.414-29.52 65.934-65.934 65.934s-65.934-29.52-65.934-65.934 29.52-65.934 65.934-65.934 65.934 29.52 65.934 65.934z" fill-rule="evenodd" stroke-width="5.8883"/>
  </g>
 </g>
</svg>
